<mxfile host="65bd71144e">
    <diagram id="WWDIxFYHe-cteLU5ubrt" name="Page-1">
        <mxGraphModel dx="2161" dy="830" grid="1" gridSize="10" guides="1" tooltips="1" connect="1" arrows="1" fold="1" page="1" pageScale="1" pageWidth="1200" pageHeight="1920" math="0" shadow="0">
            <root>
                <mxCell id="0"/>
                <mxCell id="1" parent="0"/>
                <mxCell id="26" value="" style="ellipse;whiteSpace=wrap;html=1;aspect=fixed;" vertex="1" parent="1">
                    <mxGeometry x="-805" y="40" width="130" height="130" as="geometry"/>
                </mxCell>
                <mxCell id="2" value="k = 5&lt;br&gt;Look a 5, its not null, we push it to the stack, current root is now root.left&lt;br&gt;Look a 3, its not null, we push it to the stack, current root is now root.left&lt;br&gt;Look at 2, its not null, we push it to the stack, current root is now null&lt;br&gt;we pop the stack, set root to 2 again&lt;br&gt;decrement k, k is 3, root(2) = root.right(null)&lt;br&gt;Root is null, we pop the stack, root is now 3&lt;br&gt;decrement k, k is 2, root(3) = root.right(4)&lt;br&gt;look at 4, its not null, we push it to the stack, current root is now null&lt;br&gt;we pop the stack, set root to 4&lt;br&gt;decrement k, k 2, root(4) = root.right(null)&lt;br&gt;current root is null, we pop 5 off stack, root is 5, decrement k, k = 1, root(5) = root.right(6)&lt;br&gt;Look a 6, its not pull, push to stack, current root is rool.left(null)&lt;br&gt;root is null, we pop of 6 from stack, root = 6, decrement k, k is 0, return root's value (6)" style="text;html=1;strokeColor=none;fillColor=none;align=left;verticalAlign=middle;whiteSpace=wrap;rounded=0;" parent="1" vertex="1">
                    <mxGeometry x="-655" y="430" width="525" height="240" as="geometry"/>
                </mxCell>
                <mxCell id="3" value="5" style="ellipse;whiteSpace=wrap;html=1;aspect=fixed;" parent="1" vertex="1">
                    <mxGeometry x="-360" y="40" width="80" height="80" as="geometry"/>
                </mxCell>
                <mxCell id="4" value="3" style="ellipse;whiteSpace=wrap;html=1;aspect=fixed;" parent="1" vertex="1">
                    <mxGeometry x="-440" y="160" width="80" height="80" as="geometry"/>
                </mxCell>
                <mxCell id="5" value="6" style="ellipse;whiteSpace=wrap;html=1;aspect=fixed;" parent="1" vertex="1">
                    <mxGeometry x="-280" y="160" width="80" height="80" as="geometry"/>
                </mxCell>
                <mxCell id="6" value="4" style="ellipse;whiteSpace=wrap;html=1;aspect=fixed;" parent="1" vertex="1">
                    <mxGeometry x="-390" y="280" width="80" height="80" as="geometry"/>
                </mxCell>
                <mxCell id="7" value="2" style="ellipse;whiteSpace=wrap;html=1;aspect=fixed;" parent="1" vertex="1">
                    <mxGeometry x="-500" y="280" width="80" height="80" as="geometry"/>
                </mxCell>
                <mxCell id="8" value="7" style="ellipse;whiteSpace=wrap;html=1;aspect=fixed;" parent="1" vertex="1">
                    <mxGeometry x="-240" y="280" width="80" height="80" as="geometry"/>
                </mxCell>
                <mxCell id="9" value="" style="endArrow=none;html=1;entryX=0;entryY=1;entryDx=0;entryDy=0;" parent="1" target="3" edge="1">
                    <mxGeometry width="50" height="50" relative="1" as="geometry">
                        <mxPoint x="-390" y="160" as="sourcePoint"/>
                        <mxPoint x="-340" y="110" as="targetPoint"/>
                    </mxGeometry>
                </mxCell>
                <mxCell id="10" value="" style="endArrow=none;html=1;entryX=0;entryY=1;entryDx=0;entryDy=0;exitX=0.5;exitY=0;exitDx=0;exitDy=0;" parent="1" source="7" target="4" edge="1">
                    <mxGeometry width="50" height="50" relative="1" as="geometry">
                        <mxPoint x="-470" y="280" as="sourcePoint"/>
                        <mxPoint x="-420" y="230" as="targetPoint"/>
                    </mxGeometry>
                </mxCell>
                <mxCell id="11" value="" style="endArrow=none;html=1;entryX=0.402;entryY=-0.01;entryDx=0;entryDy=0;entryPerimeter=0;" parent="1" target="6" edge="1">
                    <mxGeometry width="50" height="50" relative="1" as="geometry">
                        <mxPoint x="-375" y="230" as="sourcePoint"/>
                        <mxPoint x="-325" y="180" as="targetPoint"/>
                    </mxGeometry>
                </mxCell>
                <mxCell id="12" value="" style="endArrow=none;html=1;entryX=0.402;entryY=-0.01;entryDx=0;entryDy=0;entryPerimeter=0;exitX=1;exitY=1;exitDx=0;exitDy=0;" parent="1" source="3" edge="1">
                    <mxGeometry width="50" height="50" relative="1" as="geometry">
                        <mxPoint x="-280" y="120" as="sourcePoint"/>
                        <mxPoint x="-262.84000000000015" y="169.20000000000005" as="targetPoint"/>
                    </mxGeometry>
                </mxCell>
                <mxCell id="13" value="" style="endArrow=none;html=1;exitX=1;exitY=1;exitDx=0;exitDy=0;" parent="1" target="8" edge="1">
                    <mxGeometry width="50" height="50" relative="1" as="geometry">
                        <mxPoint x="-228.87572875253787" y="240.00427124746213" as="sourcePoint"/>
                        <mxPoint x="-200.00000000000014" y="300.9200000000001" as="targetPoint"/>
                    </mxGeometry>
                </mxCell>
                <mxCell id="16" value="" style="rounded=0;whiteSpace=wrap;html=1;rotation=-90;" parent="1" vertex="1">
                    <mxGeometry x="-727.5" y="185" width="250" height="85" as="geometry"/>
                </mxCell>
                <mxCell id="18" value="3" style="rounded=1;whiteSpace=wrap;html=1;" parent="1" vertex="1">
                    <mxGeometry x="-632.5" y="270" width="60" height="40" as="geometry"/>
                </mxCell>
                <mxCell id="19" value="2" style="rounded=1;whiteSpace=wrap;html=1;" parent="1" vertex="1">
                    <mxGeometry x="-632.5" y="230" width="60" height="40" as="geometry"/>
                </mxCell>
                <mxCell id="20" value="4" style="rounded=1;whiteSpace=wrap;html=1;" parent="1" vertex="1">
                    <mxGeometry x="-840" y="180" width="60" height="40" as="geometry"/>
                </mxCell>
                <mxCell id="21" value="6" style="rounded=1;whiteSpace=wrap;html=1;" parent="1" vertex="1">
                    <mxGeometry x="-760" y="185" width="60" height="40" as="geometry"/>
                </mxCell>
                <mxCell id="22" value="7" style="rounded=1;whiteSpace=wrap;html=1;" parent="1" vertex="1">
                    <mxGeometry x="-787.5" y="260" width="60" height="40" as="geometry"/>
                </mxCell>
                <mxCell id="27" value="Root" style="text;html=1;strokeColor=none;fillColor=none;align=center;verticalAlign=middle;whiteSpace=wrap;rounded=0;" vertex="1" parent="1">
                    <mxGeometry x="-770" y="50" width="60" height="30" as="geometry"/>
                </mxCell>
                <mxCell id="28" value="0" style="ellipse;whiteSpace=wrap;html=1;aspect=fixed;" vertex="1" parent="1">
                    <mxGeometry x="-570" y="20" width="80" height="80" as="geometry"/>
                </mxCell>
                <mxCell id="29" value="k" style="text;html=1;strokeColor=none;fillColor=none;align=center;verticalAlign=middle;whiteSpace=wrap;rounded=0;" vertex="1" parent="1">
                    <mxGeometry x="-560" y="20" width="60" height="30" as="geometry"/>
                </mxCell>
                <mxCell id="17" value="5" style="rounded=1;whiteSpace=wrap;html=1;shadow=1;" parent="1" vertex="1">
                    <mxGeometry x="-632.5" y="310" width="60" height="40" as="geometry"/>
                </mxCell>
                <mxCell id="36" value="5" style="ellipse;whiteSpace=wrap;html=1;aspect=fixed;" vertex="1" parent="1">
                    <mxGeometry x="-970" y="620" width="80" height="80" as="geometry"/>
                </mxCell>
                <mxCell id="37" value="3" style="ellipse;whiteSpace=wrap;html=1;aspect=fixed;" vertex="1" parent="1">
                    <mxGeometry x="-1050" y="740" width="80" height="80" as="geometry"/>
                </mxCell>
                <mxCell id="38" value="6" style="ellipse;whiteSpace=wrap;html=1;aspect=fixed;" vertex="1" parent="1">
                    <mxGeometry x="-890" y="740" width="80" height="80" as="geometry"/>
                </mxCell>
                <mxCell id="39" value="4" style="ellipse;whiteSpace=wrap;html=1;aspect=fixed;" vertex="1" parent="1">
                    <mxGeometry x="-1000" y="860" width="80" height="80" as="geometry"/>
                </mxCell>
                <mxCell id="40" value="2" style="ellipse;whiteSpace=wrap;html=1;aspect=fixed;" vertex="1" parent="1">
                    <mxGeometry x="-1110" y="860" width="80" height="80" as="geometry"/>
                </mxCell>
                <mxCell id="41" value="7" style="ellipse;whiteSpace=wrap;html=1;aspect=fixed;" vertex="1" parent="1">
                    <mxGeometry x="-840" y="890" width="80" height="80" as="geometry"/>
                </mxCell>
                <mxCell id="42" value="" style="endArrow=none;html=1;entryX=0;entryY=1;entryDx=0;entryDy=0;" edge="1" parent="1" target="36">
                    <mxGeometry width="50" height="50" relative="1" as="geometry">
                        <mxPoint x="-1000" y="740" as="sourcePoint"/>
                        <mxPoint x="-950" y="690" as="targetPoint"/>
                    </mxGeometry>
                </mxCell>
                <mxCell id="43" value="" style="endArrow=none;html=1;entryX=0;entryY=1;entryDx=0;entryDy=0;exitX=0.5;exitY=0;exitDx=0;exitDy=0;" edge="1" parent="1" source="40" target="37">
                    <mxGeometry width="50" height="50" relative="1" as="geometry">
                        <mxPoint x="-1080" y="860" as="sourcePoint"/>
                        <mxPoint x="-1030" y="810" as="targetPoint"/>
                    </mxGeometry>
                </mxCell>
                <mxCell id="44" value="" style="endArrow=none;html=1;entryX=0.402;entryY=-0.01;entryDx=0;entryDy=0;entryPerimeter=0;" edge="1" parent="1" target="39">
                    <mxGeometry width="50" height="50" relative="1" as="geometry">
                        <mxPoint x="-985" y="810" as="sourcePoint"/>
                        <mxPoint x="-935" y="760" as="targetPoint"/>
                    </mxGeometry>
                </mxCell>
                <mxCell id="45" value="" style="endArrow=none;html=1;entryX=0.402;entryY=-0.01;entryDx=0;entryDy=0;entryPerimeter=0;exitX=1;exitY=1;exitDx=0;exitDy=0;" edge="1" parent="1" source="36">
                    <mxGeometry width="50" height="50" relative="1" as="geometry">
                        <mxPoint x="-890" y="700" as="sourcePoint"/>
                        <mxPoint x="-872.8400000000001" y="749.2" as="targetPoint"/>
                    </mxGeometry>
                </mxCell>
                <mxCell id="46" value="" style="endArrow=none;html=1;exitX=1;exitY=1;exitDx=0;exitDy=0;" edge="1" parent="1" target="41">
                    <mxGeometry width="50" height="50" relative="1" as="geometry">
                        <mxPoint x="-838.875728752538" y="820.0042712474622" as="sourcePoint"/>
                        <mxPoint x="-810.0000000000001" y="880.9200000000001" as="targetPoint"/>
                    </mxGeometry>
                </mxCell>
            </root>
        </mxGraphModel>
    </diagram>
</mxfile>